<svg width="1320" height="277" viewBox="0 0 1320 277" fill="none" xmlns="http://www.w3.org/2000/svg">
<path d="M83.9389 85.1609H79.5034C78.9382 85.1609 78.4805 85.6289 78.4805 86.2049V99.7089C78.4805 100.286 78.9382 100.753 79.5034 100.753H83.9389C84.504 100.753 84.9618 100.286 84.9618 99.7089V86.2049C84.9618 85.6289 84.504 85.1609 83.9389 85.1609Z" fill="black"/>
<path d="M146.755 234.399H143.273C142.829 233.853 142.47 234.253 143.291 234.746V244.823C143.316 244.845 144.164 244.855 145.015 244.855C145.864 244.855 146.713 244.845 147.611 244.823V234.746C147.558 234.253 147.199 233.853 146.755 234.399Z" fill="black"/>
<path d="M124.52 98.697C123.726 99.4076 123.183 100.184 122.871 101.206C115.492 125.366 108.086 149.518 100.688 173.673C99.9419 176.109 99.9497 176.108 102.568 176.185C105.142 176.261 107.714 176.336 110.287 176.432C111.884 176.49 111.896 176.51 112.318 175.053C114.376 167.945 130.431 112.41 137.06 89.4303C137.075 88.4476 137.089 87.489 137.105 86.5556C137.047 86.625 136.989 86.6943 136.926 86.7583C132.962 90.905 128.804 94.8636 124.52 98.697Z" fill="black"/>
<path d="M124.793 176.879C125.597 176.915 125.853 176.605 126.04 175.897C127.318 171.076 132.765 150.993 136.288 138.033C136.498 124.903 136.691 112.803 136.856 102.356C129.724 127.029 122.586 151.725 115.409 176.556C118.712 176.664 121.755 176.741 124.793 176.879Z" fill="black"/>
<path d="M130.259 177.068C132.059 177.124 133.862 177.146 135.662 177.193C135.801 168.534 135.937 160.037 136.068 151.829C133.163 162.558 129.554 175.876 129.518 176.032C129.305 176.942 129.349 177.04 130.259 177.068Z" fill="black"/>
<path d="M146.755 149.757H143.273C142.829 150.157 142.47 150.557 143.291 151.05V176.353C142.47 176.846 142.829 177.246 143.273 176.486H146.755C147.199 177.246 147.558 176.846 147.611 176.353V151.05C147.558 150.557 147.199 150.157 146.755 149.757Z" fill="black"/>
<path d="M146.755 183.168H143.273C142.829 184.12 142.47 184.52 143.291 185.014V222.447C142.47 222.94 142.829 223.34 143.273 223.262H146.755C147.199 223.34 147.558 222.94 147.611 222.447V185.014C147.558 184.52 147.199 184.12 146.755 183.168Z" fill="black"/>
<path d="M146.755 116.345H143.273C142.829 117.406 142.47 117.806 143.291 118.3V139.964C142.47 140.457 142.829 140.857 143.273 140.846H146.755C147.199 140.857 147.558 140.457 147.611 139.964V118.3C147.558 117.806 147.199 117.406 146.755 116.345Z" fill="black"/>
<path d="M72.0282 175.173C74.4942 175.278 76.9629 175.349 79.4316 175.386C80.2993 175.398 81.3131 175.886 82.0011 175.296C82.5972 174.782 82.5998 173.812 82.8494 173.038C88.485 155.537 94.118 138.034 99.7498 120.532C99.98 119.814 100.186 119.089 100.403 118.368C100.321 118.326 100.239 118.286 100.157 118.245C97.8592 119.844 90.2748 125.114 88.7333 126.081C87.8927 126.608 87.4117 127.28 87.0974 128.192C82.7149 140.912 72.1342 171.438 71.26 173.993C70.8915 175.07 70.9018 175.125 72.0282 175.173Z" fill="black"/>
<path d="M134.582 244.318C134.9 224.611 135.231 203.976 135.553 183.994C125.114 184.044 86.7336 184.192 51.9138 184.348C67.0969 217.066 98.0243 240.532 134.582 244.318Z" fill="black"/>
<path d="M45.695 150.588C44.9566 150.933 44.2195 151.28 43.4824 151.627C43.2173 151.752 42.9522 151.876 42.6858 152.001C42.7129 152.213 42.7466 152.424 42.7737 152.636C43.0155 154.513 43.2988 156.377 43.635 158.223C44.6669 155.64 45.6976 153.057 46.7282 150.475C46.2821 150.116 45.9872 150.451 45.695 150.588Z" fill="black"/>
<path d="M53.4419 173.358C55.5343 167.617 63.2351 146.469 64.9796 141.632C65.1089 141.269 65.3998 140.917 65.2136 140.372C63.5545 141.261 61.9238 142.136 60.2931 143.008C57.6757 144.406 55.0648 145.816 52.4358 147.192C51.8604 147.493 51.4323 147.834 51.1879 148.456C49.1059 153.744 47.0149 159.028 44.9238 164.312C45.7476 167.721 46.7317 171.066 47.8671 174.337C49.5184 174.396 51.0224 174.444 51.7841 174.458C53.0203 174.484 53.032 174.482 53.4419 173.358Z" fill="black"/>
<path d="M56.6318 174.606C57.2616 174.64 57.8164 174.677 58.3711 174.696C60.8902 174.782 63.4093 174.872 65.9297 174.945C67.2074 174.981 67.2177 174.969 67.647 173.733C70.6795 164.968 80.5658 136.357 82.4771 130.817C82.5417 130.633 82.5922 130.446 82.7034 130.08C81.8563 130.278 81.3921 130.712 80.8619 131.029C77.5113 133.032 74.1711 135.053 70.814 137.045C70.2553 137.377 69.8571 137.738 69.6295 138.373C65.3711 150.221 61.0855 162.061 56.809 173.902C56.7418 174.088 56.7107 174.285 56.6318 174.606Z" fill="black"/>
<path d="M85.8331 175.616C89.0751 175.723 92.3274 175.791 95.5745 175.96C96.6039 176.013 96.6388 175.345 96.8224 174.748C98.413 169.588 112.635 123.121 118.167 105.053C118.226 104.863 118.271 104.668 118.417 104.124C115.672 106.311 113.167 108.32 110.644 110.309C109.259 111.401 107.866 112.484 106.436 113.52C105.648 114.091 105.15 114.761 104.853 115.693C100.454 129.48 87.9565 168.389 86.1396 174.067C85.987 174.545 85.7387 175.007 85.8331 175.616Z" fill="black"/>
<path d="M243.3 150.476C244.331 153.057 245.363 155.64 246.394 158.222C246.767 156.169 247.085 154.096 247.343 152.002C246.339 151.53 245.337 151.058 244.334 150.589C244.041 150.452 243.746 150.116 243.3 150.476Z" fill="black"/>
<path d="M237.593 147.191C234.964 145.815 232.353 144.406 229.735 143.007C228.105 142.135 226.474 141.261 224.816 140.373C224.629 140.918 224.92 141.269 225.05 141.631C226.793 146.469 234.494 167.617 236.587 173.358C236.996 174.482 237.008 174.483 238.244 174.458C239.006 174.443 240.51 174.395 242.161 174.337C243.297 171.066 244.281 167.722 245.105 164.313C243.014 159.027 240.922 153.743 238.841 148.455C238.596 147.834 238.168 147.493 237.593 147.191Z" fill="black"/>
<path d="M257.733 158.166C256.85 163.583 255.607 168.878 254.032 174.021C252.95 177.555 251.711 181.021 250.321 184.403C247.605 191.018 244.306 197.317 240.513 203.251C221.929 232.333 191.183 252.469 155.633 255.847C152.967 256.101 150.275 256.261 147.558 256.322C147.171 256.331 146.785 256.339 146.395 256.345C145.082 256.361 143.774 256.353 142.471 256.323C139.755 256.262 137.063 256.105 134.396 255.851C91.7475 251.803 55.7729 223.549 39.7053 184.403C38.3177 181.021 37.0789 177.557 35.9965 174.021C34.896 170.422 33.9675 166.745 33.2006 163.005C32.8709 161.401 32.5631 159.787 32.298 158.159C31.8881 155.641 31.5532 153.094 31.301 150.522C30.9583 147.033 30.7617 143.498 30.7204 139.925C30.4889 120.279 34.9413 101.703 42.9964 85.3126C61.6271 47.402 99.5634 21.2046 143.632 20.6553C184.042 20.1526 219.807 41.3326 240.513 73.7153C252.152 91.9166 259.034 113.657 259.308 137.075C259.361 141.619 259.165 146.106 258.73 150.522C258.478 153.095 258.144 155.645 257.733 158.166ZM245.138 61.1033C222.308 29.758 185.959 9.48065 145.014 9.48065C97.6973 9.48065 56.5203 36.562 35.2529 76.5073C25.4572 94.906 19.8823 116.03 19.8823 138.499C19.8823 149.186 21.1509 159.566 23.5265 169.495C36.9883 225.778 86.2696 267.519 145.014 267.519C185.047 267.519 220.687 248.134 243.591 217.974C260.228 196.069 270.146 168.479 270.146 138.499C270.146 109.461 260.839 82.6646 245.138 61.1033Z" fill="black"/>
<path d="M160.511 176.032C160.475 175.876 156.866 162.559 153.96 151.829C154.092 160.036 154.228 168.535 154.366 177.192C156.168 177.147 157.969 177.123 159.77 177.068C160.681 177.04 160.725 176.941 160.511 176.032Z" fill="black"/>
<path d="M145.014 32.1447C101.951 32.1447 65.0565 59.3581 49.6083 98.0114C44.6206 110.493 41.8635 124.163 41.8635 138.501C41.8635 140.946 41.945 143.373 42.1028 145.778C44.133 144.853 46.1827 143.898 48.2479 142.915C77.82 128.843 110.718 108.747 137.205 80.1087C137.35 70.7621 137.435 64.9967 137.44 64.1341C137.449 62.5581 140.893 60.0154 142.358 59.7461C142.358 63.8927 142.35 67.7114 142.361 71.5301C142.367 73.7914 142.38 73.8047 143.393 73.8394C143.923 73.8594 146.106 73.8594 146.637 73.8394C147.648 73.8047 147.661 73.7914 147.668 71.5301C147.679 67.7114 147.67 63.8927 147.67 59.7461C149.136 60.0154 152.579 62.5581 152.588 64.1341C152.594 64.9967 152.679 70.7621 152.824 80.1087C181.161 110.747 216.837 131.61 247.926 145.778C248.084 143.373 248.166 140.946 248.166 138.501C248.166 79.7621 201.983 32.1447 145.014 32.1447Z" fill="black"/>
<path d="M155.446 244.318C192.004 240.532 222.931 217.066 238.114 184.348C203.295 184.192 164.915 184.044 154.476 183.994C154.797 203.976 155.128 224.611 155.446 244.318Z" fill="black"/>
<path d="M207.18 173.038C207.429 173.811 207.431 174.783 208.027 175.295C208.716 175.887 209.73 175.399 210.598 175.386C213.065 175.35 215.534 175.278 218.001 175.173C219.127 175.125 219.136 175.07 218.769 173.994C217.894 171.439 207.313 140.911 202.932 128.191C202.617 127.279 202.135 126.607 201.296 126.081C199.754 125.114 192.169 119.845 189.872 118.246C189.789 118.286 189.708 118.326 189.625 118.367C189.842 119.089 190.049 119.814 190.279 120.531C195.911 138.034 201.543 155.537 207.18 173.038Z" fill="black"/>
<path d="M179.742 176.431C182.314 176.335 184.887 176.26 187.461 176.184C190.079 176.107 190.087 176.11 189.34 173.672C181.941 149.518 174.537 125.366 167.158 101.206C166.845 100.184 166.303 99.4085 165.509 98.6965C161.225 94.8632 157.067 90.9045 153.101 86.7578C153.04 86.6938 152.982 86.6245 152.924 86.5552C152.938 87.4898 152.954 88.4472 152.969 89.4298C159.598 112.41 175.653 167.944 177.711 175.052C178.133 176.51 178.145 176.491 179.742 176.431Z" fill="black"/>
<path d="M222.382 173.733C222.81 174.97 222.821 174.981 224.1 174.945C226.619 174.871 229.139 174.782 231.658 174.697C232.213 174.677 232.766 174.639 233.398 174.606C233.317 174.285 233.286 174.087 233.219 173.902C228.943 162.061 224.658 150.221 220.399 138.373C220.171 137.739 219.773 137.377 219.214 137.045C215.857 135.053 212.517 133.031 209.166 131.029C208.637 130.713 208.172 130.278 207.325 130.079C207.437 130.446 207.488 130.634 207.551 130.817C209.464 136.357 219.35 164.967 222.382 173.733Z" fill="black"/>
<path d="M193.206 174.748C193.389 175.345 193.426 176.013 194.454 175.96C197.701 175.791 200.953 175.723 204.195 175.616C204.29 175.007 204.043 174.545 203.889 174.067C202.072 168.389 189.575 129.48 185.175 115.693C184.878 114.761 184.38 114.091 183.592 113.52C182.162 112.484 180.769 111.401 179.384 110.309C176.863 108.32 174.358 106.311 171.613 104.124C171.757 104.668 171.803 104.863 171.861 105.053C177.393 123.121 191.615 169.588 193.206 174.748Z" fill="black"/>
<path d="M165.235 176.879C168.274 176.741 171.317 176.664 174.62 176.556C167.443 151.725 160.304 127.029 153.173 102.356C153.338 112.803 153.531 124.903 153.74 138.033C157.264 150.993 162.711 171.076 163.989 175.897C164.176 176.605 164.432 176.915 165.235 176.879Z" fill="black"/>
<path d="M422.607 168.119H371.807V134.519H421.207C427.607 134.519 431.941 133.586 434.207 131.719C436.474 129.719 437.607 125.453 437.607 118.919C437.607 112.253 436.474 107.986 434.207 106.119C431.941 104.253 427.607 103.319 421.207 103.319H371.807V69.5193H422.607C433.274 69.5193 442.541 71.5193 450.407 75.5193C458.274 79.386 464.341 85.0526 468.607 92.5193C473.007 99.8526 475.207 108.653 475.207 118.919C475.207 129.453 473.007 138.386 468.607 145.719C464.341 153.053 458.274 158.653 450.407 162.519C442.541 166.253 433.274 168.119 422.607 168.119ZM396.807 203.519H359.207V69.5193H396.807V203.519ZM547.631 205.519C533.497 205.519 521.364 202.719 511.231 197.119C501.231 191.386 493.564 183.386 488.231 173.119C482.897 162.719 480.231 150.519 480.231 136.519C480.231 122.519 482.897 110.386 488.231 100.119C493.564 89.7193 501.231 81.7193 511.231 76.1193C521.364 70.386 533.497 67.5193 547.631 67.5193C561.764 67.5193 573.831 70.386 583.831 76.1193C593.831 81.7193 601.497 89.7193 606.831 100.119C612.164 110.386 614.831 122.519 614.831 136.519C614.831 150.519 612.164 162.719 606.831 173.119C601.497 183.386 593.831 191.386 583.831 197.119C573.831 202.719 561.764 205.519 547.631 205.519ZM547.631 168.919C554.564 168.919 559.964 168.053 563.831 166.319C567.697 164.453 570.431 161.186 572.031 156.519C573.631 151.719 574.431 145.053 574.431 136.519C574.431 127.853 573.631 121.186 572.031 116.519C570.431 111.853 567.697 108.653 563.831 106.919C559.964 105.053 554.564 104.119 547.631 104.119C540.697 104.119 535.231 105.053 531.231 106.919C527.364 108.653 524.631 111.853 523.031 116.519C521.431 121.186 520.631 127.853 520.631 136.519C520.631 145.053 521.431 151.719 523.031 156.519C524.631 161.186 527.364 164.453 531.231 166.319C535.231 168.053 540.697 168.919 547.631 168.919ZM661.846 203.519H624.246V69.5193H664.446L701.846 129.719L710.646 146.119H713.246L711.246 129.719V69.5193H748.646V203.519H708.646L673.246 147.719L662.446 128.719H659.846L661.846 147.719V203.519ZM834.179 203.519H796.579V69.5193H834.179V203.519ZM875.379 103.319H755.379V69.5193H875.379V103.319ZM919.659 203.519H882.059V69.5193H919.659V203.519ZM972.003 203.519H934.403V69.5193H972.003V203.519ZM1035.2 158.919H944.603V125.319H1035.2V158.919ZM1038.2 103.319H944.603V69.5193H1038.2V103.319ZM1084.5 203.519H1046.9V69.5193H1084.5V203.519ZM1155.1 203.519H1057.1V169.719H1155.1V203.519ZM1152.1 153.119H1057.1V119.519H1152.1V153.119ZM1155.1 103.319H1057.1V69.5193H1155.1V103.319ZM1201.06 203.519H1157.46L1195.26 136.919V135.119L1157.46 69.5193H1201.66L1226.06 113.119H1227.86L1250.46 69.5193H1294.06L1256.66 134.319V136.119L1294.06 203.519H1249.86L1225.46 160.319H1223.66L1201.06 203.519Z" fill="black"/>
</svg>
