<svg width="778" height="157" viewBox="0 0 778 157" fill="none" xmlns="http://www.w3.org/2000/svg">
<path d="M62.9471 89.4244H76.2591C76.5151 89.4244 76.7284 89.3391 76.8991 89.1684C77.1551 88.9124 77.2404 88.6564 77.1551 88.4004L69.7311 54.9924C69.7311 54.9071 69.6884 54.8644 69.6031 54.8644C69.5177 54.8644 69.4751 54.9071 69.4751 54.9924L62.0511 88.4004C61.9657 88.6564 62.0084 88.9124 62.1791 89.1684C62.4351 89.3391 62.6911 89.4244 62.9471 89.4244ZM85.4751 40.0164L110.563 119.632C111.075 121.339 110.776 122.918 109.667 124.368C108.643 125.819 107.235 126.544 105.443 126.544H92.8991C90.7657 126.544 88.8457 125.904 87.1391 124.624C85.5177 123.259 84.4937 121.552 84.0671 119.504L81.8911 109.648C81.7204 108.966 81.2937 108.624 80.6111 108.624H58.7231C57.8697 108.624 57.4004 108.966 57.3151 109.648L55.1391 119.504C54.7124 121.552 53.6457 123.259 51.9391 124.624C50.3177 125.904 48.4404 126.544 46.3071 126.544H34.2751C32.4831 126.544 31.0324 125.819 29.9231 124.368C28.8991 122.918 28.6431 121.339 29.1551 119.632L54.2431 40.0164C54.8404 37.9684 55.9924 36.3044 57.6991 35.0244C59.4911 33.7444 61.4964 33.1044 63.7151 33.1044H76.0031C78.1364 33.1044 80.0564 33.7444 81.7631 35.0244C83.5551 36.3044 84.7924 37.9684 85.4751 40.0164ZM177.06 105.424C178.767 104.912 180.303 105.168 181.668 106.192C183.119 107.216 183.844 108.624 183.844 110.416V117.328C183.844 119.547 183.161 121.51 181.796 123.216C180.516 124.923 178.809 125.947 176.676 126.288C170.873 127.312 164.729 127.824 158.244 127.824C143.737 127.824 132.431 123.728 124.324 115.536C116.217 107.344 112.164 95.4404 112.164 79.8244C112.164 64.5498 116.089 52.7311 123.94 44.3684C131.791 36.0058 142.799 31.8244 156.964 31.8244C163.449 31.8244 169.593 32.3364 175.396 33.3604C177.529 33.7018 179.236 34.7258 180.516 36.4324C181.881 38.1391 182.564 40.1018 182.564 42.3204V49.4884C182.564 51.2804 181.839 52.7311 180.388 53.8404C179.023 54.8644 177.487 55.1204 175.78 54.6084C170.489 53.0724 165.284 52.3044 160.164 52.3044C153.337 52.3044 148.004 54.6511 144.164 59.3444C140.324 63.9524 138.404 70.7791 138.404 79.8244C138.404 88.6991 140.495 95.5684 144.676 100.432C148.857 105.211 154.447 107.6 161.444 107.6C166.82 107.6 172.025 106.875 177.06 105.424ZM263.168 33.1044C265.131 33.1044 266.837 33.8298 268.288 35.2804C269.739 36.7311 270.464 38.4378 270.464 40.4004V46.9284C270.464 48.8911 269.739 50.5978 268.288 52.0484C266.837 53.4991 265.131 54.2244 263.168 54.2244H247.552C246.784 54.2244 246.4 54.6084 246.4 55.3764V119.248C246.4 121.211 245.675 122.918 244.224 124.368C242.859 125.819 241.195 126.544 239.232 126.544H227.456C225.493 126.544 223.787 125.819 222.336 124.368C220.971 122.918 220.288 121.211 220.288 119.248V55.3764C220.288 54.6084 219.904 54.2244 219.136 54.2244H203.52C201.557 54.2244 199.851 53.4991 198.4 52.0484C196.949 50.5978 196.224 48.8911 196.224 46.9284V40.4004C196.224 38.4378 196.949 36.7311 198.4 35.2804C199.851 33.8298 201.557 33.1044 203.52 33.1044H263.168ZM308.068 33.1044C310.031 33.1044 311.737 33.8298 313.188 35.2804C314.639 36.7311 315.364 38.4378 315.364 40.4004V119.248C315.364 121.211 314.639 122.918 313.188 124.368C311.737 125.819 310.031 126.544 308.068 126.544H294.5C292.537 126.544 290.831 125.819 289.38 124.368C287.929 122.918 287.204 121.211 287.204 119.248V40.4004C287.204 38.4378 287.929 36.7311 289.38 35.2804C290.831 33.8298 292.537 33.1044 294.5 33.1044H308.068ZM405.443 33.1044C407.235 33.1044 408.643 33.8298 409.667 35.2804C410.776 36.7311 411.075 38.3098 410.563 40.0164L385.475 119.632C384.792 121.68 383.555 123.344 381.763 124.624C380.056 125.904 378.136 126.544 376.003 126.544H363.715C361.496 126.544 359.491 125.904 357.699 124.624C355.992 123.344 354.84 121.68 354.243 119.632L329.155 40.0164C328.643 38.3098 328.899 36.7311 329.923 35.2804C331.032 33.8298 332.483 33.1044 334.275 33.1044H346.819C348.952 33.1044 350.83 33.7871 352.451 35.1524C354.158 36.4324 355.224 38.0964 355.651 40.1444L369.475 102.096C369.475 102.182 369.56 102.224 369.731 102.224C369.816 102.224 369.859 102.182 369.859 102.096L384.451 40.1444C384.963 38.0964 386.03 36.4324 387.651 35.1524C389.358 33.7871 391.278 33.1044 393.411 33.1044H405.443ZM436.697 89.4244H450.009C450.265 89.4244 450.478 89.3391 450.649 89.1684C450.905 88.9124 450.99 88.6564 450.905 88.4004L443.481 54.9924C443.481 54.9071 443.438 54.8644 443.353 54.8644C443.268 54.8644 443.225 54.9071 443.225 54.9924L435.801 88.4004C435.716 88.6564 435.758 88.9124 435.929 89.1684C436.185 89.3391 436.441 89.4244 436.697 89.4244ZM459.225 40.0164L484.313 119.632C484.825 121.339 484.526 122.918 483.417 124.368C482.393 125.819 480.985 126.544 479.193 126.544H466.649C464.516 126.544 462.596 125.904 460.889 124.624C459.268 123.259 458.244 121.552 457.817 119.504L455.641 109.648C455.47 108.966 455.044 108.624 454.361 108.624H432.473C431.62 108.624 431.15 108.966 431.065 109.648L428.889 119.504C428.462 121.552 427.396 123.259 425.689 124.624C424.068 125.904 422.19 126.544 420.057 126.544H408.025C406.233 126.544 404.782 125.819 403.673 124.368C402.649 122.918 402.393 121.339 402.905 119.632L427.993 40.0164C428.59 37.9684 429.742 36.3044 431.449 35.0244C433.241 33.7444 435.246 33.1044 437.465 33.1044H449.753C451.886 33.1044 453.806 33.7444 455.513 35.0244C457.305 36.3044 458.542 37.9684 459.225 40.0164ZM526.269 107.984C533.522 107.984 538.941 105.68 542.525 101.072C546.194 96.4644 548.029 88.9551 548.029 78.5444C548.029 69.1578 546.194 62.3311 542.525 58.0644C538.941 53.7978 533.522 51.6644 526.269 51.6644C524.648 51.6644 523.069 51.7924 521.533 52.0484C520.85 52.2191 520.509 52.6458 520.509 53.3284V106.192C520.509 106.96 520.85 107.43 521.533 107.6C523.069 107.856 524.648 107.984 526.269 107.984ZM523.709 31.8244C539.069 31.8244 551.016 35.9631 559.549 44.2404C568.082 52.4324 572.349 63.8671 572.349 78.5444C572.349 94.5018 568.04 106.704 559.421 115.152C550.888 123.6 538.984 127.824 523.709 127.824C516.968 127.824 509.97 127.483 502.717 126.8C500.669 126.63 498.962 125.734 497.597 124.112C496.232 122.491 495.549 120.656 495.549 118.608V41.0404C495.549 38.9924 496.232 37.1578 497.597 35.5364C498.962 33.9151 500.669 33.0191 502.717 32.8484C509.97 32.1658 516.968 31.8244 523.709 31.8244ZM607.029 79.8244C607.029 97.7444 613.216 106.704 625.589 106.704C637.962 106.704 644.149 97.7444 644.149 79.8244C644.149 61.9044 637.962 52.9444 625.589 52.9444C613.216 52.9444 607.029 61.9044 607.029 79.8244ZM592.821 44.6244C600.842 36.0911 611.765 31.8244 625.589 31.8244C639.413 31.8244 650.336 36.0911 658.357 44.6244C666.378 53.1578 670.389 64.8911 670.389 79.8244C670.389 94.7578 666.378 106.491 658.357 115.024C650.336 123.558 639.413 127.824 625.589 127.824C611.765 127.824 600.842 123.558 592.821 115.024C584.8 106.491 580.789 94.7578 580.789 79.8244C580.789 64.8911 584.8 53.1578 592.821 44.6244ZM713.409 67.6644C725.356 71.1631 733.676 75.3444 738.369 80.2084C743.062 85.0724 745.409 91.5578 745.409 99.6644C745.409 118.438 733.249 127.824 708.929 127.824C701.164 127.824 694.124 126.544 687.809 123.984C685.846 123.216 684.268 121.851 683.073 119.888C681.964 117.926 681.409 115.792 681.409 113.488V106.96C681.409 105.339 682.092 104.144 683.457 103.376C684.822 102.608 686.23 102.566 687.681 103.248C694.422 106.406 701.078 107.984 707.649 107.984C715.329 107.984 719.169 105.424 719.169 100.304C719.169 97.9151 718.572 96.0804 717.377 94.8004C716.182 93.5204 714.006 92.3684 710.849 91.3444C699.5 87.8458 691.308 83.4938 686.273 78.2884C681.324 72.9978 678.849 66.4698 678.849 58.7044C678.849 50.3418 681.836 43.7711 687.809 38.9924C693.868 34.2138 702.614 31.8244 714.049 31.8244C722.241 31.8244 729.537 32.7204 735.937 34.5124C737.985 35.1098 739.649 36.3471 740.929 38.2244C742.209 40.0164 742.849 42.0218 742.849 44.2404V50.5124C742.849 52.2191 742.124 53.5844 740.673 54.6084C739.308 55.5471 737.772 55.7178 736.065 55.1204C728.47 52.6458 721.558 51.4084 715.329 51.4084C708.332 51.4084 704.833 53.8404 704.833 58.7044C704.833 62.9711 707.692 65.9578 713.409 67.6644Z" fill="white"/>
</svg>
