<?xml version="1.0" encoding="UTF-8" standalone="no"?>
<!DOCTYPE svg PUBLIC "-//W3C//DTD SVG 1.1//EN" "http://www.w3.org/Graphics/SVG/1.1/DTD/svg11.dtd">
<svg width="100%" height="100%" viewBox="0 0 700 700" version="1.1" xmlns="http://www.w3.org/2000/svg" xmlns:xlink="http://www.w3.org/1999/xlink" xml:space="preserve" xmlns:serif="http://www.serif.com/" style="fill-rule:evenodd;clip-rule:evenodd;stroke-linejoin:round;stroke-miterlimit:2;">
    <g id="SoloLogo" transform="matrix(0.725775,0,0,0.950018,563.314,29.5674)">
        <rect x="-776.155" y="-31.123" width="964.486" height="736.828" style="fill:none;"/>
        <g transform="matrix(1.37784,0,0,1.05261,1010.98,-171.371)">
            <g transform="matrix(1,0,0,1,-1029.27,598.366)">
                <path d="M0,-17.794C0,-23.794 0.286,-29.726 0.818,-35.588C-60.93,-64.05 -105.224,-123.886 -111.639,-194.667C-178.5,-163.848 -224.914,-96.246 -224.914,-17.794C-224.914,89.717 -137.758,176.873 -30.247,176.873C11.648,176.873 50.45,163.636 82.21,141.119C32.467,105.854 0,47.823 0,-17.794" style="fill:rgb(42,56,178);fill-rule:nonzero;"/>
            </g>
            <g transform="matrix(1,0,0,1,-753.21,775.239)">
                <path d="M0,-371.54C-6.415,-300.759 -50.71,-240.923 -112.457,-212.461C-111.926,-206.599 -111.639,-200.667 -111.639,-194.667C-111.639,-129.05 -144.106,-71.019 -193.849,-35.754C-162.089,-13.237 -123.287,0 -81.392,0C26.119,0 113.274,-87.156 113.274,-194.667C113.274,-273.119 66.861,-340.721 0,-371.54" style="fill:rgb(42,56,178);fill-rule:nonzero;"/>
            </g>
            <g transform="matrix(1,0,0,1,-864.85,721.691)">
                <path d="M0,-141.119C0,-147.119 -0.286,-153.051 -0.818,-158.913C-25.584,-147.497 -53.15,-141.119 -82.21,-141.119C-111.269,-141.119 -138.836,-147.497 -163.602,-158.913C-164.133,-153.051 -164.42,-147.119 -164.42,-141.119C-164.42,-75.502 -131.953,-17.471 -82.21,17.794C-32.467,-17.471 0,-75.502 0,-141.119" style="fill:rgb(0,128,240);fill-rule:nonzero;"/>
            </g>
            <g transform="matrix(1,0,0,1,-947.059,191.238)">
                <path d="M0,230.42C31.76,207.904 70.562,194.667 112.457,194.667C141.516,194.667 169.083,201.045 193.849,212.46C194.38,206.599 194.667,200.667 194.667,194.667C194.667,87.155 107.511,0 0,0C-107.511,0 -194.667,87.155 -194.667,194.667C-194.667,200.667 -194.38,206.599 -193.849,212.46C-169.083,201.045 -141.516,194.667 -112.457,194.667C-70.562,194.667 -31.76,207.904 0,230.42" style="fill:rgb(42,56,178);fill-rule:nonzero;"/>
            </g>
            <g transform="matrix(0.984924,-0.172987,-0.172987,-0.984924,-1013.39,558.758)">
                <path d="M-15.532,-1.354C-0.258,55.096 38.988,99.819 89.044,123.559C61.658,151.23 25.731,170.979 -15.532,178.227C-44.153,183.253 -72.408,181.74 -98.776,174.781C-104.7,103.958 -71.425,37.361 -15.532,-1.354" style="fill:rgb(0,128,240);fill-rule:nonzero;"/>
            </g>
            <g transform="matrix(0.0922543,0.995735,0.995735,-0.0922543,-806.618,372.97)">
                <path d="M35.524,-144.334C71.598,-102.288 125.07,-76.192 183.551,-76.308C160.907,-12.199 105.411,37.427 35.524,50.345C21.873,26.738 12.979,-0.124 10.298,-29.059C6.433,-70.775 16.034,-110.633 35.524,-144.334" style="fill:rgb(0,128,240);fill-rule:nonzero;"/>
            </g>
            <g transform="matrix(-1,0,0,1,-947.059,580.571)">
                <path d="M0,-158.913C45.195,-126.872 76.113,-76.035 81.392,-17.793C56.626,-6.377 29.059,0 0,0C-29.059,0 -56.626,-6.377 -81.392,-17.793C-76.113,-76.035 -45.195,-126.872 0,-158.913" style="fill:white;fill-rule:nonzero;"/>
            </g>
            <g transform="matrix(1,0,0,1,-947.059,793.239)">
                <path d="M0,-620C-28.702,-620 -56.555,-614.375 -82.785,-603.28C-108.111,-592.568 -130.853,-577.236 -150.378,-557.711C-169.903,-538.186 -185.235,-515.445 -195.947,-490.118C-207.041,-463.888 -212.667,-436.035 -212.667,-407.333C-212.667,-405.022 -212.627,-402.688 -212.548,-400.34C-244.111,-383.49 -270.937,-358.956 -290.629,-328.809C-313.196,-294.261 -325.124,-254.1 -325.124,-212.667C-325.124,-183.965 -319.498,-156.112 -308.404,-129.882C-297.692,-104.555 -282.36,-81.814 -262.835,-62.289C-243.31,-42.763 -220.568,-27.432 -195.242,-16.72C-169.012,-5.625 -141.159,0 -112.457,0C-72.325,0 -33.705,-11.072 0,-32.134C33.705,-11.072 72.325,0 112.457,0C141.159,0 169.012,-5.625 195.242,-16.72C220.568,-27.432 243.31,-42.763 262.835,-62.289C282.36,-81.814 297.692,-104.555 308.404,-129.882C319.498,-156.112 325.124,-183.965 325.124,-212.667C325.124,-254.1 313.196,-294.261 290.629,-328.809C270.938,-358.956 244.111,-383.49 212.548,-400.34C212.627,-402.688 212.667,-405.022 212.667,-407.333C212.667,-436.035 207.042,-463.888 195.947,-490.118C185.235,-515.445 169.903,-538.186 150.378,-557.711C130.853,-577.236 108.111,-592.568 82.785,-603.28C56.555,-614.375 28.702,-620 0,-620M0,-602C107.511,-602 194.667,-514.845 194.667,-407.333C194.667,-401.333 194.38,-395.401 193.849,-389.54C260.71,-358.721 307.124,-291.119 307.124,-212.667C307.124,-105.155 219.968,-18 112.457,-18C70.562,-18 31.76,-31.237 0,-53.753C-31.76,-31.237 -70.562,-18 -112.457,-18C-219.968,-18 -307.124,-105.155 -307.124,-212.667C-307.124,-291.119 -260.71,-358.721 -193.849,-389.54C-194.38,-395.401 -194.667,-401.333 -194.667,-407.333C-194.667,-514.845 -107.511,-602 0,-602" style="fill:white;fill-rule:nonzero;"/>
            </g>
        </g>
    </g>
</svg>
