<svg width="312" height="312" viewBox="0 0 312 312" fill="none" xmlns="http://www.w3.org/2000/svg">
<path d="M94.9248 102.661H90.4892C89.9241 102.661 89.4663 103.129 89.4663 103.705V117.209C89.4663 117.786 89.9241 118.253 90.4892 118.253H94.9248C95.4899 118.253 95.9477 117.786 95.9477 117.209V103.705C95.9477 103.129 95.4899 102.661 94.9248 102.661Z" fill="white"/>
<path d="M157.741 251.899H154.259C153.815 251.353 153.456 251.753 154.277 252.246V262.323C154.301 262.345 155.15 262.355 156.001 262.355C156.85 262.355 157.699 262.345 158.597 262.323V252.246C158.544 251.753 158.185 251.353 157.741 251.899Z" fill="white"/>
<path d="M135.506 116.197C134.712 116.908 134.169 117.684 133.857 118.706C126.478 142.866 119.072 167.018 111.674 191.173C110.928 193.609 110.935 193.608 113.554 193.685C116.128 193.761 118.7 193.836 121.273 193.932C122.87 193.99 122.882 194.01 123.303 192.553C125.362 185.445 141.417 129.91 148.046 106.93C148.061 105.948 148.075 104.989 148.091 104.056C148.033 104.125 147.974 104.194 147.912 104.258C143.947 108.405 139.79 112.364 135.506 116.197Z" fill="white"/>
<path d="M135.779 194.379C136.582 194.415 136.838 194.105 137.026 193.397C138.303 188.576 143.75 168.493 147.274 155.533C147.483 142.403 147.676 130.303 147.842 119.856C140.71 144.529 133.572 169.225 126.395 194.056C129.697 194.164 132.74 194.241 135.779 194.379Z" fill="white"/>
<path d="M141.245 194.568C143.045 194.624 144.847 194.646 146.647 194.693C146.787 186.034 146.923 177.537 147.053 169.329C144.149 180.058 140.54 193.376 140.504 193.532C140.29 194.442 140.334 194.54 141.245 194.568Z" fill="white"/>
<path d="M157.741 167.257H154.259C153.815 167.657 153.456 168.057 154.277 168.55V193.853C153.456 194.346 153.815 194.746 154.259 193.986H157.741C158.185 194.746 158.544 194.346 158.597 193.853V168.55C158.544 168.057 158.185 167.657 157.741 167.257Z" fill="white"/>
<path d="M157.741 200.668H154.259C153.815 201.62 153.456 202.02 154.277 202.514V239.947C153.456 240.44 153.815 240.84 154.259 240.762H157.741C158.185 240.84 158.544 240.44 158.597 239.947V202.514C158.544 202.02 158.185 201.62 157.741 200.668Z" fill="white"/>
<path d="M157.741 133.845H154.259C153.815 134.906 153.456 135.306 154.277 135.8V157.464C153.456 157.957 153.815 158.357 154.259 158.346H157.741C158.185 158.357 158.544 157.957 158.597 157.464V135.8C158.544 135.306 158.185 134.906 157.741 133.845Z" fill="white"/>
<path d="M83.0138 192.673C85.4798 192.778 87.9485 192.849 90.4171 192.886C91.2849 192.898 92.2987 193.386 92.9867 192.796C93.5828 192.282 93.5854 191.312 93.835 190.538C99.4706 173.037 105.104 155.534 110.735 138.032C110.966 137.314 111.171 136.589 111.388 135.868C111.307 135.826 111.224 135.786 111.143 135.745C108.845 137.344 101.26 142.614 99.7189 143.581C98.8783 144.108 98.3973 144.78 98.083 145.692C93.7005 158.412 83.1198 188.938 82.2456 191.493C81.8771 192.57 81.8874 192.625 83.0138 192.673Z" fill="white"/>
<path d="M145.568 261.818C145.886 242.111 146.217 221.476 146.539 201.494C136.099 201.544 97.7192 201.692 62.8994 201.848C78.0825 234.566 109.01 258.032 145.568 261.818Z" fill="white"/>
<path d="M56.6811 168.088C55.9427 168.433 55.2056 168.78 54.4685 169.127C54.2034 169.252 53.9383 169.376 53.6719 169.501C53.699 169.713 53.7327 169.924 53.7598 170.136C54.0016 172.013 54.2848 173.877 54.6211 175.723C55.653 173.14 56.6837 170.557 57.7143 167.975C57.2682 167.616 56.9733 167.951 56.6811 168.088Z" fill="white"/>
<path d="M64.4278 190.858C66.5201 185.117 74.2209 163.969 75.9654 159.132C76.0947 158.769 76.3857 158.417 76.1995 157.872C74.5403 158.761 72.9096 159.636 71.279 160.508C68.6616 161.906 66.0507 163.316 63.4217 164.692C62.8462 164.993 62.4182 165.334 62.1738 165.956C60.0918 171.244 58.0007 176.528 55.9097 181.812C56.7334 185.221 57.7175 188.566 58.8529 191.837C60.5043 191.896 62.0082 191.944 62.7699 191.958C64.0062 191.984 64.0178 191.982 64.4278 190.858Z" fill="white"/>
<path d="M67.6177 192.106C68.2474 192.14 68.8022 192.177 69.357 192.196C71.8761 192.282 74.3952 192.372 76.9155 192.445C78.1932 192.481 78.2035 192.469 78.6329 191.233C81.6653 182.468 91.5516 153.857 93.4629 148.317C93.5276 148.133 93.578 147.946 93.6892 147.58C92.8422 147.778 92.3779 148.212 91.8477 148.529C88.4971 150.532 85.1569 152.553 81.7998 154.545C81.2412 154.877 80.8429 155.238 80.6153 155.873C76.3569 167.721 72.0713 179.561 67.7948 191.402C67.7276 191.588 67.6966 191.785 67.6177 192.106Z" fill="white"/>
<path d="M96.8192 193.116C100.061 193.223 103.313 193.291 106.561 193.46C107.59 193.513 107.625 192.845 107.809 192.248C109.399 187.088 123.621 140.621 129.154 122.553C129.212 122.363 129.257 122.168 129.403 121.624C126.658 123.811 124.153 125.82 121.63 127.809C120.245 128.901 118.852 129.984 117.422 131.02C116.634 131.591 116.136 132.261 115.839 133.193C111.44 146.98 98.9426 185.889 97.1257 191.567C96.9731 192.045 96.7248 192.507 96.8192 193.116Z" fill="white"/>
<path d="M254.286 167.976C255.317 170.557 256.349 173.14 257.379 175.722C257.753 173.669 258.071 171.596 258.329 169.502C257.325 169.03 256.323 168.558 255.319 168.089C255.027 167.952 254.732 167.616 254.286 167.976Z" fill="white"/>
<path d="M248.578 164.691C245.949 163.315 243.339 161.906 240.721 160.507C239.09 159.635 237.46 158.761 235.802 157.873C235.614 158.418 235.905 158.769 236.036 159.131C237.779 163.969 245.48 185.117 247.572 190.858C247.982 191.982 247.994 191.983 249.23 191.958C249.992 191.943 251.496 191.895 253.147 191.837C254.283 188.566 255.267 185.222 256.09 181.813C253.999 176.527 251.908 171.243 249.826 165.955C249.582 165.334 249.154 164.993 248.578 164.691Z" fill="white"/>
<path d="M268.719 175.666C267.836 181.083 266.593 186.378 265.018 191.521C263.936 195.055 262.697 198.521 261.307 201.903C258.591 208.518 255.292 214.817 251.499 220.751C232.915 249.833 202.169 269.969 166.618 273.347C163.953 273.601 161.261 273.761 158.544 273.822C158.157 273.831 157.77 273.839 157.381 273.845C156.067 273.861 154.76 273.853 153.456 273.823C150.741 273.762 148.048 273.605 145.382 273.351C102.733 269.303 66.7587 241.049 50.6911 201.903C49.3035 198.521 48.0647 195.057 46.9823 191.521C45.8818 187.922 44.9533 184.245 44.1865 180.505C43.8567 178.901 43.549 177.287 43.2839 175.659C42.8739 173.141 42.539 170.594 42.2868 168.022C41.9441 164.533 41.7476 160.998 41.7062 157.425C41.4747 137.779 45.9271 119.203 53.9822 102.813C72.6129 64.902 110.549 38.7046 154.618 38.1553C195.028 37.6526 230.793 58.8326 251.499 91.2153C263.138 109.417 270.02 131.157 270.294 154.575C270.347 159.119 270.151 163.606 269.716 168.022C269.464 170.595 269.13 173.145 268.719 175.666ZM256.124 78.6033C233.294 47.258 196.944 26.9806 156 26.9806C108.683 26.9806 67.5062 54.062 46.2387 94.0073C36.443 112.406 30.8682 133.53 30.8682 155.999C30.8682 166.686 32.1368 177.066 34.5123 186.995C47.9742 243.278 97.2555 285.019 156 285.019C196.033 285.019 231.672 265.634 254.577 235.474C271.214 213.569 281.132 185.979 281.132 155.999C281.132 126.961 271.825 100.165 256.124 78.6033Z" fill="white"/>
<path d="M171.497 193.532C171.461 193.376 167.852 180.059 164.946 169.329C165.078 177.536 165.213 186.035 165.352 194.692C167.153 194.647 168.955 194.623 170.756 194.568C171.666 194.54 171.71 194.441 171.497 193.532Z" fill="white"/>
<path d="M156 49.6447C112.936 49.6447 76.0421 76.8581 60.5939 115.511C55.6062 127.993 52.8491 141.663 52.8491 156.001C52.8491 158.446 52.9306 160.873 53.0884 163.278C55.1186 162.353 57.1683 161.398 59.2335 160.415C88.8056 146.343 121.704 126.247 148.19 97.6087C148.335 88.2621 148.421 82.4967 148.426 81.6341C148.435 80.0581 151.879 77.5154 153.344 77.2461C153.344 81.3927 153.336 85.2114 153.346 89.0301C153.353 91.2914 153.366 91.3047 154.378 91.3394C154.908 91.3594 157.091 91.3594 157.623 91.3394C158.634 91.3047 158.647 91.2914 158.653 89.0301C158.665 85.2114 158.656 81.3927 158.656 77.2461C160.121 77.5154 163.565 80.0581 163.574 81.6341C163.579 82.4967 163.664 88.2621 163.809 97.6087C192.146 128.247 227.822 149.11 258.911 163.278C259.069 160.873 259.152 158.446 259.152 156.001C259.152 97.2621 212.969 49.6447 156 49.6447Z" fill="white"/>
<path d="M166.432 261.818C202.99 258.032 233.917 234.566 249.101 201.848C214.281 201.692 175.901 201.544 165.462 201.494C165.783 221.476 166.114 242.111 166.432 261.818Z" fill="white"/>
<path d="M218.166 190.538C218.415 191.311 218.416 192.283 219.013 192.795C219.702 193.387 220.716 192.899 221.583 192.886C224.051 192.85 226.519 192.778 228.987 192.673C230.113 192.625 230.122 192.57 229.755 191.494C228.879 188.939 218.299 158.411 213.918 145.691C213.603 144.779 213.121 144.107 212.282 143.581C210.74 142.614 203.154 137.345 200.858 135.746C200.775 135.786 200.694 135.826 200.611 135.867C200.828 136.589 201.035 137.314 201.265 138.031C206.897 155.534 212.529 173.037 218.166 190.538Z" fill="white"/>
<path d="M190.728 193.931C193.3 193.835 195.873 193.76 198.447 193.684C201.065 193.607 201.073 193.61 200.326 191.172C192.928 167.018 185.523 142.866 178.144 118.706C177.831 117.684 177.289 116.908 176.495 116.196C172.211 112.363 168.053 108.404 164.087 104.258C164.027 104.194 163.968 104.124 163.91 104.055C163.924 104.99 163.94 105.947 163.955 106.93C170.584 129.91 186.639 185.444 188.698 192.552C189.119 194.01 189.131 193.991 190.728 193.931Z" fill="white"/>
<path d="M233.368 191.233C233.796 192.47 233.807 192.481 235.086 192.445C237.605 192.371 240.125 192.282 242.644 192.197C243.199 192.177 243.752 192.139 244.383 192.106C244.303 191.785 244.272 191.587 244.205 191.402C239.928 179.561 235.644 167.721 231.384 155.873C231.157 155.239 230.759 154.877 230.2 154.545C226.843 152.553 223.503 150.531 220.152 148.529C219.623 148.213 219.158 147.778 218.311 147.579C218.423 147.946 218.473 148.134 218.537 148.317C220.449 153.857 230.336 182.467 233.368 191.233Z" fill="white"/>
<path d="M204.192 192.248C204.376 192.845 204.412 193.513 205.44 193.46C208.687 193.291 211.939 193.223 215.181 193.116C215.276 192.507 215.029 192.045 214.875 191.567C213.058 185.889 200.561 146.98 196.161 133.193C195.864 132.261 195.366 131.591 194.579 131.02C193.148 129.984 191.756 128.901 190.371 127.809C187.849 125.82 185.344 123.811 182.599 121.624C182.743 122.168 182.789 122.363 182.847 122.553C188.379 140.621 202.601 187.088 204.192 192.248Z" fill="white"/>
<path d="M176.221 194.379C179.26 194.241 182.303 194.164 185.605 194.056C178.428 169.225 171.29 144.529 164.158 119.856C164.324 130.303 164.516 142.403 164.726 155.533C168.25 168.493 173.697 188.576 174.974 193.397C175.162 194.105 175.418 194.415 176.221 194.379Z" fill="white"/>
</svg>
